# xmcd CD database file
#
# Track frame offsets:
#	150
#	11863
#	20949
#	28343
#	37211
#	45893
#	53978
#	64038
#	72687
#	82337
#	92071
#	99209
#	106256
#	114598
#	121807
#	131161
#	139613
#	150208
#	160768
#	170884
#	179950
#	189082
#	197768
#	209201
#	218136
#	228388
#	235530
#	244493
#	251633
#	263519
#
# Disc length: 3618 seconds
#
# Revision: 0
# Processed by: cddbd v1.5.2PL0 Copyright (c) Steve Scherf et al.
# Submitted via: CDex 1.51
#
DISCID=bc0e201e
DTITLE=Nelson Díaz y La Constelación - Esencial de la Salsa
DYEAR=2009
DGENRE=Salsa
TTITLE0=Mujer araña
TTITLE1=La fuga
TTITLE2=Amiga
TTITLE3=Y que me pasa
TTITLE4=Como la quiero, cuanto la extraña
TTITLE5=Jardin prohibido
TTITLE6=Yamulemaue
TTITLE7=Estoy enamorado
TTITLE8=Mi mundo
TTITLE9=Vivir sin ella
TTITLE10=Locamente enamorado
TTITLE11=Regalame una noche
TTITLE12=Perdóname
TTITLE13=La cita
TTITLE14=Nunca te dire adiós
TTITLE15=Nunca cambies
TTITLE16=Los olores del amor
TTITLE17=Si supieras
TTITLE18=Cara de niño
TTITLE19=Vete ya (vuelvo a empezar)
TTITLE20=Tu me estas volviendo loco
TTITLE21=Casi un hechizo
TTITLE22=La persona ideal
TTITLE23=Déjala
TTITLE24=Quiero morir en tu piel
TTITLE25=Anhelo
TTITLE26=Aquel viejo motel
TTITLE27=De parte mia
TTITLE28=Dime que pasó
TTITLE29=La rebelión
EXTD=YEAR: 2009
EXTT0=
EXTT1=
EXTT2=
EXTT3=
EXTT4=
EXTT5=
EXTT6=
EXTT7=
EXTT8=
EXTT9=
EXTT10=
EXTT11=
EXTT12=
EXTT13=
EXTT14=
EXTT15=
EXTT16=
EXTT17=
EXTT18=
EXTT19=
EXTT20=
EXTT21=
EXTT22=
EXTT23=
EXTT24=
EXTT25=
EXTT26=
EXTT27=
EXTT28=
EXTT29=
PLAYORDER=
